<svg width="24" height="24" viewBox="0 0 24 24" fill="none" xmlns="http://www.w3.org/2000/svg">
<path d="M12.3535 17.0214C12.1582 17.2164 11.8417 17.2166 11.6465 17.0214C11.4516 16.8261 11.4515 16.5095 11.6465 16.3143L15.4619 12.4999L7.33398 12.4999C7.05784 12.4999 6.83398 12.276 6.83398 11.9999C6.83407 11.7238 7.05789 11.4999 7.33398 11.4999L15.458 11.4999L11.6465 7.68834L11.583 7.60924C11.4552 7.41532 11.476 7.15209 11.6465 6.98131C11.8173 6.81053 12.0813 6.78887 12.2754 6.91686L12.3535 6.98131L17.0156 11.6424C17.064 11.6896 17.1037 11.746 17.1299 11.8094C17.1363 11.8249 17.1398 11.8414 17.1445 11.8573C17.1581 11.9026 17.167 11.9501 17.167 11.9999V12.0018C17.1668 12.1295 17.1178 12.2569 17.0205 12.3544L12.3535 17.0214Z" fill="currentColor"/>
</svg>
