<svg width="24" height="24" viewBox="0 0 24 24" fill="none" xmlns="http://www.w3.org/2000/svg">
<g clip-path="url(#clip0_1177_7929)">
<path d="M18.7245 4.58088C18.9187 4.45241 19.1834 4.47435 19.3544 4.64533C19.5253 4.81629 19.5463 5.08017 19.4179 5.27424L19.3544 5.35236L12.706 11.9998L19.3535 18.6473L19.4179 18.7254C19.5464 18.9195 19.5244 19.1833 19.3535 19.3543C19.1825 19.5252 18.9186 19.5472 18.7245 19.4188L18.6464 19.3543L11.999 12.7069L5.35345 19.3533C5.15822 19.5485 4.84167 19.5485 4.64642 19.3533C4.45118 19.1581 4.45121 18.8416 4.64642 18.6463L11.2919 11.9998L4.64642 5.35432C4.4512 5.1591 4.45129 4.84256 4.64642 4.64728C4.84168 4.45202 5.15819 4.45202 5.35345 4.64728L11.999 11.2928L18.6464 4.64533L18.7245 4.58088Z" fill="#F1F1F1"/>
</g>
<defs>
<clipPath id="clip0_1177_7929">
<rect width="16" height="16" fill="white" transform="translate(4 4)"/>
</clipPath>
</defs>
</svg>
