<svg
  width="24"
  height="24"
  viewBox="0 0 24 24"
  fill="none"
  xmlns="http://www.w3.org/2000/svg"
>
  <path fill-rule="evenodd" clip-rule="evenodd"
    d="M8 13C9.65685 13 11 14.3431 11 16V18C11 19.6569 9.65685 21 8 21H6C4.34315 21 3 19.6569 3 18V16C3 14.3431 4.34315 13 6 13H8ZM6 14C4.89543 14 4 14.8954 4 16V18C4 19.0357 4.78722 19.887 5.7959 19.9893L6 20H8C9.10457 20 10 19.1046 10 18V16C10 14.8954 9.10457 14 8 14H6Z"
    fill="currentColor"
  />
  <path fill-rule="evenodd" clip-rule="evenodd"
    d="M18 13C19.6569 13 21 14.3431 21 16V18C21 19.6569 19.6569 21 18 21H16C14.3431 21 13 19.6569 13 18V16C13 14.3431 14.3431 13 16 13H18ZM16 14C14.8954 14 14 14.8954 14 16V18C14 19.0357 14.7872 19.887 15.7959 19.9893L16 20H18C19.1046 20 20 19.1046 20 18V16C20 14.8954 19.1046 14 18 14H16Z"
    fill="currentColor"
  />
  <path fill-rule="evenodd" clip-rule="evenodd"
    d="M8 3C9.65685 3 11 4.34315 11 6V8C11 9.65685 9.65685 11 8 11H6C4.34315 11 3 9.65685 3 8V6C3 4.34315 4.34315 3 6 3H8ZM6 4C4.89543 4 4 4.89543 4 6V8C4 9.03565 4.78722 9.887 5.7959 9.98926L6 10H8C9.10457 10 10 9.10457 10 8V6C10 4.89543 9.10457 4 8 4H6Z"
    fill="currentColor"
  />
  <path fill-rule="evenodd" clip-rule="evenodd"
    d="M18 3C19.6569 3 21 4.34315 21 6V8C21 9.65685 19.6569 11 18 11H16C14.3431 11 13 9.65685 13 8V6C13 4.34315 14.3431 3 16 3H18ZM16 4C14.8954 4 14 4.89543 14 6V8C14 9.03565 14.7872 9.887 15.7959 9.98926L16 10H18C19.1046 10 20 9.10457 20 8V6C20 4.89543 19.1046 4 18 4H16Z"
    fill="currentColor"
  />
</svg>