<svg width="24" height="24" viewBox="0 0 24 24" fill="none" xmlns="http://www.w3.org/2000/svg">
<path d="M20.21 9.08301C20.21 8.54662 20.1047 8.01507 19.8994 7.51953C19.6941 7.02418 19.3929 6.57441 19.0137 6.19531V6.19434C18.6345 5.815 18.184 5.51391 17.6885 5.30859C17.193 5.10331 16.6613 4.99805 16.125 4.99805C15.5889 4.9981 15.0578 5.1034 14.5625 5.30859C14.067 5.5139 13.6165 5.81503 13.2373 6.19434L12.3535 7.07812C12.1582 7.27315 11.8417 7.27331 11.6465 7.07812L10.7637 6.19434C9.99771 5.42846 8.95818 4.99805 7.875 4.99805C6.79201 4.99816 5.75316 5.4286 4.9873 6.19434C4.22133 6.96031 3.79102 7.99976 3.79102 9.08301C3.79104 10.1661 4.22145 11.2048 4.9873 11.9707L12 18.9834L19.0137 11.9707C19.393 11.5915 19.6941 11.141 19.8994 10.6455C20.1046 10.1501 20.2099 9.6192 20.21 9.08301ZM21.21 9.08301C21.2099 9.75057 21.0787 10.4116 20.8232 11.0283C20.5677 11.6451 20.1928 12.2057 19.7207 12.6777L12.3535 20.0449C12.1582 20.2399 11.8416 20.2401 11.6465 20.0449L4.28027 12.6777C3.32689 11.7243 2.79104 10.4314 2.79102 9.08301C2.79102 7.73454 3.32676 6.44082 4.28027 5.4873C5.23366 4.53403 6.52679 3.99816 7.875 3.99805C9.22339 3.99805 10.5172 4.53389 11.4707 5.4873L12 6.0166L12.5303 5.4873C13.0023 5.01516 13.5629 4.64032 14.1797 4.38477C14.7964 4.12928 15.4575 3.9981 16.125 3.99805C16.7927 3.99805 17.4544 4.1292 18.0713 4.38477C18.6881 4.64033 19.2487 5.01514 19.7207 5.4873L19.8926 5.66895C20.2842 6.10087 20.5996 6.59698 20.8232 7.13672C21.0789 7.75361 21.21 8.41525 21.21 9.08301Z" fill="currentColor"/>
</svg>
